<svg xmlns="http://www.w3.org/2000/svg" width="845" height="817" viewBox="0 0 845 817"><g><g><g><path fill="#fff" d="M243.848 601.907c-.422 1.692-.32 3.285-2.213 4.235-.947.426-1.996.745-3.156.955-1.053.212-4.631.11-5.053-.316-.103-.213-.734-21.08-.734-23.832 0-.532 7.996-.422 9.893 1.163zM253 582.633c-1.263-12.817-21.89-10.167-31.78-8.897l2.525 74.037h8.84V619.7c6.312.32 19.574-4.13 20.415-12.814z"/></g><g><path fill="#fff" d="M284.784 633.577c-.209 1.167-.418 2.224-.734 3.179-.844 1.585-3.262 2.965-6.63 2.965-6.943 0-7.472-.954-7.472-6.038 0-2.327.21-46.387.21-47.98 0-5.083.421-6.034 7.368-6.034 3.471 0 5.262.206 6.102 1.799.316.95.422 3.285.525 4.448 0 0 .422 8.262.422 21.182zm5.263-58.254a15.317 15.317 0 0 0-4.525-1.585l-4.947-.217c-3.05-.103-7.155-.103-11.68 0-4.521.107-6.627 2.76-7.783 5.3-.632 1.48-.947 3.17-1.054 5.084l-.106 51.47c-.316 6.464 1.578 11.236 8.311 12.396 2.423 0 4.738 0 7.05.11 3.894.102 8.315.205 11.156.102 4.524 0 7.684-4.555 7.684-9l.21-23.836c0-12.395.208-26.375.208-31.034z"/></g><g><path fill="#fff" d="M333.408 584.96l-17.365 2.117c-.942.11-1.787.422-2.524.958-1.262.955-2.529 2.753-2.84 6.46-.419 7.308-.32 38.022.946 40.456 1.369 2.228 2.103 3.71 7.262 3.71 2.525 0 6.628-.319 9.997-.634 2-.213 3.996-.422 6.102-.738l.631 8.897-18.52 1.692c-9.574.848-14.734-3.285-15.574-12.502l1.262-50.52c.106-1.06.422-2.118 1.053-3.068 1.16-1.593 3.156-3.498 7.263-4.453 8.098-2.01 20.094-3.707 22.832-3.707z"/></g><g><path fill="#fff" d="M373.925 584.96l-17.36 2.117c-.947.11-1.792.422-2.525.958-1.262.955-2.529 2.753-2.844 6.46-.419 7.308-.316 38.022.946 40.456 1.37 2.228 2.107 3.71 7.263 3.71 2.524 0 6.627-.319 9.996-.634 2-.213 4-.422 6.106-.738l.627 8.897-18.52 1.692c-9.574.848-14.73-3.285-15.574-12.502l1.262-50.52c.107-1.06.422-2.118 1.054-3.068 1.16-1.593 3.159-3.498 7.262-4.453 8.102-2.01 20.098-3.707 22.836-3.707z"/></g><g><path fill="#fff" d="M406.868 647.983l1.582-43.96-13.471 44.174-10.734.421-1.471-75.097 10.311-1.27 1.053 50.31 14.52-48.402 9.89-.421-.946 74.033z"/></g><g><path fill="#fff" d="M457.806 559.648l-5.369-5.932-10.414 7.517-11.996-7.517-2.525 7.517 16.308 11.126zm2.528 88.124l.943-74.037-9.89.426-14.524 48.402-1.053-50.315-10.308 1.274 1.472 75.098 10.733-.426 13.468-44.17-1.578 43.96z"/></g><g><path fill="#fff" d="M499.905 584.96l-17.36 2.117c-.947.11-1.791.422-2.525.958-1.263.955-2.529 2.753-2.844 6.46-.418 7.308-.316 38.022.947 40.456 1.368 2.228 2.106 3.71 7.262 3.71 2.525 0 6.627-.319 9.996-.634 2-.213 4-.422 6.102-.738l.632 8.897-18.52 1.692c-9.575.848-14.73-3.285-15.575-12.502l1.266-50.52c.103-1.06.419-2.118 1.05-3.068 1.16-1.593 3.16-3.498 7.262-4.453 8.102-2.01 20.098-3.707 22.832-3.707z"/></g><g><path fill="#fff" d="M518.009 572.25l.422 31.774 19.045-31.136 6 7.308-18.943 30.505 17.365 30.927-8.316 6.566-14.52-31.984-.21 32.197h-9.262l-.84-74.462z"/></g><g><path fill="#fff" d="M575.053 633.577c-.213 1.167-.422 2.224-.738 3.179-.844 1.585-3.262 2.965-6.631 2.965-6.943 0-7.471-.954-7.471-6.038 0-2.327.209-46.387.209-47.98 0-5.083.422-6.034 7.369-6.034 3.47 0 5.262.206 6.102 1.799.316.95.422 3.285.525 4.448 0 0 .422 8.262.422 21.182zm5.258-58.254a15.278 15.278 0 0 0-4.524-1.585l-4.947-.217c-3.05-.103-7.156-.103-11.68 0-4.521.107-6.628 2.76-7.784 5.3-.63 1.48-.946 3.17-1.053 5.084l-.106 51.47c-.316 6.464 1.578 11.236 8.311 12.396 2.422 0 4.738 0 7.05.11 3.897.102 8.315.205 11.155.102 4.525 0 7.685-4.555 7.685-9l.209-23.836c0-12.395.209-26.375.209-31.034z"/></g><g><path fill="#fff" d="M592 573.628c10.525-.532 22.517 0 33.041 0v7.94h-23.676c-.525 7.102.947 28.812 1.262 31.778h19.783v7.947l-19.783 2.643v1.273c0 4.133.947 10.487 1.053 14.62h21.361v7.943h-31.57z"/></g><g><path fill="#fff" d="M33.928 743.436s-13.258.954-13.467.319c-.316-1.909 4.21-6.566 6.209-28.706.316-3.392-.107-24.784 0-25.312.631 0 4.943.209 6.103.106zm11.472.212c-.316-19.064-.21-38.238-.738-64.189l-26.832.423.315 13.877c.107 7.628.107 16.103-.315 21.08-.422 4.977-2.734 12.178-4.947 18.22-1.262 3.49-2.63 7.202-4.209 10.905l-8.418.213c-.316 3.285-.525 6.46-.21 9.745l.103.635.213 5.719c.103 2.965.21 5.931.21 6.25h9.893l.21-12.182 37.778-.21.21 11.754 9.889-.205.528-21.719z"/></g><g><path fill="#fff" d="M77.821 684.12l.213-.103c2.631-.528 6.312.742 6.521 3.813.107.951.32 10.693 0 13.134-.209 1.798-1.365 4.87-3.262 5.825-.947.426-3.681.528-3.681.528zm8.525 50.208c-.103 1.902-.316 3.814-.525 5.715-.213 2.122-.528 4.456-1.581 6.25-1.05 1.697-6.525 1.594-6.525 1.594s-.947-20.658-.103-24.68c.103-.213 4.525-.11 5.787.954zm9.471-14.726c-1.368-.741-2.84-1.27-4.63-1.589l-13.366-2.966c.738.11 1.578.11 2.631.11 1.791 0 4.422 0 8.21-.315 3.684-.32 6.102-2.016 7.47-3.609.735-.95 1.366-2.011 1.788-3.17l.315-5.726c.107-3.495.107-8.256-.315-13.45-.525-5.083-3.471-7.516-6.312-8.683-1.684-.745-3.578-1.061-5.684-.951-6.312-.323-13.258.102-19.886 1.053-.947 23.198-.947 46.82 1.05 74.25l9.364-.422c5.157-.316 10.947-.422 14.628-.738 3.475-.11 5.368-1.273 6.315-2.441.525-.634.947-1.372 1.05-2.117.213-2.864.422-5.613.737-8.37.422-4.661.738-10.17 1.053-13.874z"/></g><g><path fill="#fff" d="M131.493 753.922l1.582-43.96-13.468 44.173-10.737.422-1.471-75.098 10.311-1.27 1.053 50.311 14.521-48.402 9.893-.422-.95 74.033z"/></g><g><path fill="#fff" d="M206.213 729.245l-2.102 24.467-8.525-.426c.107-3.498.316-6.78.631-9.852.316-5.19.738-11.018 1.054-13.239.315-2.22-.947-3.175-2.213-3.916-.734-.32-1.578-.533-2.525-.639h-9.258l-2 28.28-8.734-.42-.316-26.373c-.524 0-1.262 0-2-.107-1.262 0-3.049-.11-5.155-.213-2.107-.102-3.156 2.118-3.685 4.339-.315 1.27-.418 2.76-.524 4.452v18.536h-10.099l.418-6.89c.316-4.125.213-9.319-.103-13.977-.315-2.86 2.312-10.912 9.575-12.072-5.156-.32-7.68-3.182-8.943-6.041-.738-1.586-1.16-3.388-1.16-5.396v-29.874h11.05c.209 0-1.579 20.13-1.16 26.376.315 3.278 1.053 4.658 2.209 5.506.528.532 1.266.737 2 .848l8.106.422.418-34.003h5.263c2.63 0 5.262.11 5.262.22 0 .102.209 8.471.525 16.836l.63 16.737c.316 0 .632 0 1.16-.106.84-.106 2.21 0 4.312-.32 2.422-.102 3.894-1.482 5.05-2.752.635-.742 1.16-1.586 1.475-2.544l2.63-28.071h9.05c-.525 4.878-.84 9.323-1.156 13.455-.524 7.1-1.053 14.727-1.053 17.475-.107 3.073-2.209 4.982-4.631 6.149-1.365.737-2.84 1.27-4.627 1.585 7.365-.315 9.467 8.582 9.151 11.548"/></g><g><path fill="#fff" d="M215.487 679.567c10.525-.532 22.517 0 33.042 0v7.939h-23.677c-.524 7.103.947 28.814 1.262 31.779h19.783v7.946l-19.783 2.643v1.27c0 4.137.947 10.49 1.054 14.624h21.36v7.942h-31.57z"/></g><g><path fill="#fff" d="M255.271 680.414c.312 0 2.418.11 4.419.11 1.155.103 2.528.103 3.893.103l2 35.801 11.156.635 3.156-38.03h7.573l-.209 73.619-8.737.21-2.205-27.114-9.89-.635-.635 28.174-4.524.533c-2.21.315-4.525.422-4.21.102.419-.422-2.422-73.508-1.787-73.508"/></g><g><path fill="#fff" d="M318.833 753.922l1.581-43.96-13.467 44.173-10.734.422-1.475-75.098 10.311-1.27 1.054 50.311 14.52-48.402 9.893-.422-.95 74.033z"/></g><g><path fill="#fff" d="M337.676 679.567c10.525-.532 22.517 0 33.041 0v7.939h-23.672c-.529 7.103.943 28.814 1.262 31.779h19.783v7.946l-19.783 2.643v1.27c0 4.137.943 10.49 1.053 14.624h21.357v7.942h-31.57z"/></g><g><path fill="#fff" d="M418.61 679.675l.738 64.713 10.52-.634-.208-64.501h10.52v65.135l9.894-1.057 2.84-64.078 10.943.205-2.209 73.828-53.98.212.631-73.397z"/></g><g><path fill="#fff" d="M480.284 678.188l.422 31.775 19.045-31.137 6 7.308-18.943 30.505 17.365 30.928-8.315 6.566-14.521-31.984-.209 32.197h-9.262l-.84-74.463z"/></g><g><path fill="#fff" d="M537.323 739.516c-.208 1.167-.418 2.224-.733 3.179-.844 1.585-3.263 2.965-6.631 2.965-6.943 0-7.472-.954-7.472-6.038 0-2.327.21-46.387.21-47.98 0-5.083.421-6.034 7.368-6.034 3.472 0 5.259.206 6.103 1.799.315.95.422 3.285.525 4.448 0 0 .422 8.262.422 21.182zm5.263-58.254a15.277 15.277 0 0 0-4.525-1.585l-4.947-.221c-3.049-.099-7.155-.099-11.68 0-4.52.11-6.627 2.76-7.783 5.304-.635 1.48-.947 3.171-1.053 5.084l-.107 51.47c-.315 6.464 1.578 11.232 8.312 12.396 2.422 0 4.738 0 7.05.11 3.893.102 8.315.205 11.155.102 4.525 0 7.684-4.559 7.684-9l.21-23.836c0-12.394.209-26.375.209-31.034z"/></g><g><path fill="#fff" d="M553.222 754.134l.631-9.213 5.578-.217c4.21 0 10.312-3.916 10.312-11.544 0-3.707-.107-17.155-.107-29.657-.102-7.304-.102-15.353-.102-24.045l29.779-.205 1.996 75.302h-10.94l-.212-65.557h-10.734l-.209 44.482c-.528 10.06-9.787 20.44-17.783 20.44z"/></g><g><path fill="#fff" d="M628.576 745.552c-1.897 1.593-9.893 1.692-9.893 1.167 0-2.753.63-23.623.734-23.828.422-.426 4-.532 5.053-.32 1.16.21 2.209.525 3.156.95 1.893.955 1.79 2.54 2.213 4.237zm7.996-25.422c-.95-2.646-2.844-5.289-6.733-5.186-4.107.102-6.525.213-8.107.213h-2.205l-1.163-36.437-8.517.21-1.373 74.356 18.73.212c1.79-.102 3.475-.528 4.844-1.27 2.421-1.17 4.737-3.072 5.049-7.2.106-3.921.315-8.795.315-12.715v-6.776z"/></g><g><path fill="#fff" d="M644.049 680.414c.315 0 2.421.11 4.418.11 1.16.103 2.528.103 3.897.103l1.996 35.801 11.156.635 3.156-38.03h7.577l-.213 73.619-8.733.21-2.21-27.114-9.889-.635-.63 28.174-4.525.533c-2.214.315-4.529.422-4.213.102.422-.422-2.419-73.508-1.787-73.508"/></g><g><path fill="#fff" d="M707.613 753.922l1.578-43.96-13.471 44.173-10.734.422-1.471-75.098 10.311-1.27 1.053 50.311 14.521-48.402 9.89-.422-.943 74.033z"/></g><g><path fill="#fff" d="M735.716 678.188l.422 31.775 19.045-31.137 6 7.308-18.943 30.505 17.361 30.928-8.311 6.566-14.521-31.984-.21 32.197h-9.261l-.841-74.463z"/></g><g><path fill="#fff" d="M792.754 739.516c-.21 1.167-.422 2.224-.734 3.179-.84 1.585-3.266 2.965-6.631 2.965-6.943 0-7.468-.954-7.468-6.038 0-2.327.21-46.387.21-47.98 0-5.083.422-6.034 7.364-6.034 3.472 0 5.262.206 6.103 1.799.316.95.422 3.285.524 4.448 0 0 .423 8.262.423 21.182zm5.262-58.254a15.29 15.29 0 0 0-4.52-1.585l-4.951-.221c-3.05-.099-7.156-.099-11.677 0-4.529.11-6.63 2.76-7.787 5.304-.631 1.48-.95 3.171-1.053 5.084l-.107 51.47c-.315 6.464 1.578 11.232 8.316 12.396 2.418 0 4.734 0 7.046.11 3.897.102 8.315.205 11.155.102 4.525 0 7.684-4.559 7.684-9l.21-23.836c0-12.394.212-26.375.212-31.034z"/></g><g><path fill="#fff" d="M822.333 684.12l.209-.103c2.635-.528 6.312.742 6.525 3.813.106.951.319 10.693 0 13.134-.213 1.798-1.365 4.87-3.259 5.825-.95.426-3.688.528-3.688.528zm8.524 50.208c-.106 1.902-.319 3.814-.528 5.715-.21 2.122-.525 4.456-1.574 6.25-1.053 1.697-6.525 1.594-6.525 1.594s-.95-20.658-.11-24.68c.11-.213 4.528-.11 5.79.954zm9.472-14.726c-1.373-.741-2.844-1.27-4.631-1.589l-13.365-2.966c.738.11 1.581.11 2.631.11 1.787 0 4.422 0 8.209-.315 3.68-.32 6.102-2.016 7.467-3.609.738-.95 1.37-2.011 1.791-3.17l.316-5.726c.106-3.495.106-8.256-.316-13.45-.528-5.083-3.475-7.516-6.311-8.683-1.685-.745-3.578-1.061-5.68-.951-6.316-.323-13.263.102-19.894 1.053-.943 23.198-.943 46.82 1.053 74.25l9.369-.422c5.152-.316 10.943-.422 14.62-.738 3.478-.11 5.372-1.273 6.315-2.441.528-.634.95-1.372 1.053-2.117.213-2.864.422-5.613.738-8.37.422-4.661.737-10.17 1.053-13.874z"/></g><g><path fill="#fff" d="M827.272 807.721h-2.97c-1.81-.498 3.977-.03 6.532 0 3.513.046 7.67-.16 9.506.19 1.71.67 3.11 1.396 2.973 2.282-.346 2.216-5.946 2.057-13.072 2.855-7.68.863-17.562 2.445-22.57 2.852-42.509.82-88.383.764-132.48.954-6.233.027-11.45-.057-17.225-.57-23.76.977-51.74.069-77.227 0-7.098-.019-14.304.186-21.391.19-6.806.004-13.589-.015-20.197 0-38.395.091-83.965-.118-127.132-.19-7.912-.016-15.858.293-23.756.19-37.148-.483-75.379-.293-105.154-.38-39.585-.122-80.77.452-122.374.76-9.358-.605-23.57-.448-33.863-.57-26.064-.308-55.014-.354-79.607-2.471-5.46-.472-11.992-1.464-18.414-2.095-6.445-.636-13.947-1.057-18.418-2.095-3.179-.735-4.008-2.654-8.91-2.852 1.396-2.335-4.66-5.878 8.91-6.661 8.942-.514 18.768.802 27.326 1.334 55.243 3.414 127.135 2.677 183.568 2.661 20.24-.003 42.288-.779 60.596.38 19.186-.58 38.953-.3 57.623-.185 60.029.35 120.518-.221 180.593 0 33.407.117 66.258.368 102.181.76 62.862.676 123.546.973 185.351 2.28 2.24.355 13.084.917 19.6.381"/></g><g><path fill="#fff" d="M435.47 260.03c6.365-5.266 15.004-9.357 24.54-11.653v-1.905c-9.407 2.22-17.992 6.16-24.54 11.243z"/></g><g><path fill="#fff" d="M467.45 263.809c-3.563.345-23.35 2.992-39.277 19.65V237.93l2.745-2.795c8.034-8.186 21.665-13.665 36.531-14.714zm0 5.695c-1.72.05-22.21.99-39.228 16.673 15.467-17.22 35.35-20.083 39.227-20.483zm0 5.559c-15.038.905-29.179 5.86-39.186 13.666 16.665-16.267 37.368-17.293 39.185-17.35zm-41.152 8.396c-15.928-16.658-35.71-19.305-39.277-19.65v-43.387c14.87 1.05 28.498 6.528 36.536 14.714l2.74 2.795zm-39.277-13.955v-3.81c3.878.4 23.76 3.263 39.231 20.483l-6.038-2.566c-10.132-7.55-20.73-10.444-27.18-11.552zm0 5.559v-3.684c.54.017 2.744.12 6.013.68l27.18 11.552a59.258 59.258 0 0 1 5.993 5.118zm40.216-43.54c-9.733-9.911-26.566-16.436-45.372-16.436v64.98c18.806 0 35.639 6.525 45.372 16.437 9.73-9.912 26.566-16.437 45.372-16.437v-64.98z"/></g><g><path fill="#fff" d="M435.47 252.06c6.365-5.262 15.004-9.357 24.54-11.654v-1.905c-9.407 2.221-17.992 6.16-24.54 11.244z"/></g><g><path fill="#fff" d="M435.47 244.15c6.365-5.267 15.004-9.358 24.54-11.65v-1.91c-9.407 2.222-17.992 6.16-24.54 11.244z"/></g><g><path fill="#fff" d="M394.465 232.498c9.532 2.293 18.17 6.388 24.54 11.65v-2.312c-6.552-5.083-15.138-9.026-24.54-11.243z"/></g><g><path fill="#fff" d="M435.47 267.85c6.365-5.262 15.004-9.357 24.54-11.65v-1.909c-9.407 2.221-17.992 6.16-24.54 11.244z"/></g><g><path fill="#fff" d="M394.465 240.406c9.532 2.297 18.17 6.392 24.54 11.655v-2.316c-6.552-5.083-15.134-9.023-24.54-11.243z"/></g><g><path fill="#fff" d="M394.465 256.199c9.532 2.296 18.17 6.388 24.54 11.65v-2.312c-6.552-5.083-15.138-9.026-24.54-11.243z"/></g><g><path fill="#fff" d="M394.465 248.377c9.532 2.296 18.17 6.387 24.54 11.653v-2.315c-6.552-5.084-15.134-9.022-24.54-11.243z"/></g><g><path fill="#fff" d="M349.597 469.242c21.806 0 42.604-4.278 61.657-11.966a167.137 167.137 0 0 1-10.92-8.14c-37.266-30.236-61.079-76.399-61.079-128.128 0-5.167.244-10.277.708-15.319-.004-.456-.004-.908-.004-1.365 0-63.01 35.338-117.77 87.276-145.534 51.942 27.764 87.28 82.524 87.28 145.534 0 1.37-.004.913-.008 1.365 42.543-26.585 72.094-72.036 76.938-124.64.464-5.042.703-10.156.703-15.32 0-.456 0-.908-.003-1.364h.003C591.415 73.913 517.861.812 427.238.812c-85.538 0-155.83 65.132-164.077 148.496a164.795 164.795 0 0 1 13.707-6.103c18.616-7.281 38.882-11.281 60.08-11.281 33.257 0 64.222 9.848 90.127 26.783-23.098-12.32-49.474-19.3-77.481-19.3-26.357 0-51.277 6.186-73.372 17.182a164.633 164.633 0 0 0-13.897 7.771v.005c-46.627 29.136-77.645 80.926-77.645 139.96 0 91.082 73.835 164.917 164.917 164.917"/></g><g><path fill="#fff" d="M339.963 305.69c.464 57.192 30.038 107.454 74.638 136.677a165.123 165.123 0 0 0 12.631 7.494c-.183.095-.372.179-.555.278.183-.1.376-.183.559-.281 23.137 12.368 49.573 19.383 77.641 19.383 91.082 0 164.918-73.835 164.918-164.913 0-53.262-25.3-100.57-64.478-130.717a165.076 165.076 0 0 1-2.198 15.449c-9.78 51.242-43.265 94.066-88.614 116.63-25.312 15.82-55.22 24.956-87.265 24.956-32.053 0-61.961-9.14-87.277-24.957"/></g></g></g></svg>